<?xml version="1.0" standalone="no"?>
<!DOCTYPE svg PUBLIC "-//W3C//DTD SVG 20010904//EN"
 "http://www.w3.org/TR/2001/REC-SVG-20010904/DTD/svg10.dtd">
<svg version="1.0" xmlns="http://www.w3.org/2000/svg"
 width="512.000000pt" height="512.000000pt" viewBox="0 0 512.000000 512.000000"
 preserveAspectRatio="xMidYMid meet">

<g transform="translate(0.000000,512.000000) scale(0.100000,-0.100000)"
fill="#000000" stroke="none">
<path d="M0 3678 c0 -1372 1 -1440 18 -1425 28 26 138 74 247 108 l103 32 4
71 c7 104 -8 245 -33 311 -28 76 -77 129 -140 151 -59 22 -119 68 -119 94 0
46 19 55 232 116 14 4 12 12 -19 52 -89 116 -133 274 -133 482 0 75 6 150 15
188 29 124 100 224 194 276 48 25 134 39 1478 226 l1428 198 865 -260 c476
-143 873 -267 882 -276 10 -8 18 -25 18 -38 0 -29 -59 -80 -112 -96 -60 -18
-121 -80 -147 -153 -25 -67 -39 -203 -33 -310 l4 -71 117 -38 c119 -39 202
-76 233 -104 17 -14 18 31 18 946 l0 962 -2560 0 -2560 0 0 -1442z"/>
<path d="M424 3946 c-70 -31 -104 -126 -104 -290 0 -61 7 -141 14 -177 26
-120 87 -210 154 -225 15 -4 427 -118 916 -255 489 -137 892 -247 895 -243 7
6 26 603 20 607 -13 10 -1831 597 -1846 597 -10 -1 -32 -7 -49 -14z"/>
<path d="M4205 3724 c-275 -57 -644 -133 -820 -169 -176 -36 -465 -96 -641
-132 l-322 -66 -6 -236 c-4 -130 -9 -266 -12 -303 -5 -53 -3 -68 7 -68 8 1
516 126 1129 278 l1115 278 -3 149 c-4 160 7 251 39 324 11 24 18 45 17 46 -2
1 -228 -44 -503 -101z"/>
<path d="M5108 3165 c-3 -3 -62 -19 -131 -36 l-125 -30 29 -47 c57 -93 72
-154 77 -312 3 -119 0 -163 -17 -245 -25 -125 -77 -232 -142 -297 -29 -29 -44
-50 -36 -53 6 -2 30 -9 52 -16 54 -16 65 -26 65 -61 0 -36 -36 -71 -98 -94
-67 -25 -105 -57 -136 -114 -36 -65 -56 -164 -56 -276 0 -154 -8 -143 139
-193 161 -54 234 -93 229 -124 -4 -27 98 -1 -1578 -406 l-1235 -300 -925 300
c-509 165 -947 310 -973 321 -117 53 -210 218 -236 419 -5 38 -9 -273 -10
-768 l-1 -833 2560 0 2560 0 0 1585 c0 872 -1 1585 -3 1585 -2 0 -6 -2 -9 -5z"/>
<path d="M4455 2945 c-88 -30 -362 -120 -610 -200 -247 -81 -551 -180 -675
-220 -124 -41 -258 -84 -297 -97 l-73 -22 1 -95 c1 -160 15 -510 20 -516 3 -2
420 112 928 254 734 206 927 263 948 282 37 35 80 130 93 211 7 40 11 124 8
192 -3 104 -7 129 -28 171 -29 57 -79 95 -124 94 -17 0 -103 -25 -191 -54z"/>
<path d="M415 2854 c48 -111 50 -124 51 -318 l1 -190 149 -37 c82 -20 587
-146 1122 -279 535 -133 974 -241 976 -239 3 4 -14 602 -18 606 -1 1 -508 106
-1126 233 -619 127 -1134 233 -1144 236 -16 5 -18 3 -11 -12z"/>
<path d="M1 2027 c1 -100 4 -168 6 -152 12 90 53 192 105 257 l29 37 -43 11
c-24 6 -55 15 -70 20 l-28 9 1 -182z"/>
<path d="M260 2022 c-41 -20 -75 -82 -90 -161 -22 -117 -4 -297 40 -399 25
-58 85 -118 127 -128 16 -4 428 -118 917 -255 489 -137 890 -248 892 -246 6 6
21 603 16 609 -12 11 -1820 598 -1844 598 -13 0 -39 -8 -58 -18z"/>
<path d="M4380 1874 c-85 -18 -409 -85 -720 -149 -392 -81 -607 -130 -704
-161 -117 -37 -144 -43 -173 -35 -33 9 -103 -3 -440 -75 l-71 -16 -6 -56 c-10
-107 -18 -552 -10 -552 5 1 511 126 1124 279 l1115 278 -3 134 c-4 144 7 239
38 328 11 30 20 57 20 58 0 4 7 5 -170 -33z"/>
</g>
</svg>
