<?xml version="1.0" standalone="no"?>
<!DOCTYPE svg PUBLIC "-//W3C//DTD SVG 20010904//EN"
 "http://www.w3.org/TR/2001/REC-SVG-20010904/DTD/svg10.dtd">
<svg version="1.0" xmlns="http://www.w3.org/2000/svg"
 width="512.000000pt" height="512.000000pt" viewBox="0 0 512.000000 512.000000"
 preserveAspectRatio="xMidYMid meet">

<g transform="translate(0.000000,512.000000) scale(0.100000,-0.100000)"
fill="#000000" stroke="none">
<path d="M0 4668 c1 -425 2 -450 17 -408 22 64 67 125 116 158 91 61 -100 57
2432 57 l2320 0 45 -23 c25 -12 61 -35 81 -51 37 -31 87 -114 100 -165 4 -17
7 175 8 427 l1 457 -2560 0 -2560 0 0 -452z"/>
<path d="M2 3365 c-1 -694 0 -747 15 -705 22 64 67 125 116 158 91 61 -100 57
2432 57 l2320 0 45 -23 c25 -12 61 -35 81 -51 37 -31 87 -114 100 -165 4 -17
7 309 7 724 0 415 -3 741 -7 724 -12 -47 -62 -133 -94 -160 -17 -14 -53 -37
-81 -52 l-51 -27 -2325 0 -2325 0 -63 34 c-86 47 -141 117 -163 206 -4 17 -7
-307 -7 -720z"/>
<path d="M2 1765 c-1 -694 0 -747 15 -705 22 64 67 125 116 158 91 61 -100 57
2432 57 l2320 0 45 -23 c25 -12 61 -35 81 -51 37 -31 87 -114 100 -165 4 -17
7 309 7 724 0 415 -3 741 -7 724 -12 -47 -62 -133 -94 -160 -17 -14 -53 -37
-81 -52 l-51 -27 -2325 0 -2325 0 -63 34 c-86 47 -141 117 -163 206 -4 17 -7
-307 -7 -720z"/>
<path d="M1 458 l-1 -458 2560 0 2560 0 -1 458 c-1 251 -4 443 -8 426 -12 -47
-62 -133 -94 -160 -17 -14 -53 -37 -81 -52 l-51 -27 -2325 0 -2325 0 -63 34
c-86 47 -141 117 -163 206 -4 17 -7 -176 -8 -427z"/>
</g>
</svg>
